<?xml version="1.0" standalone="no"?>
<!DOCTYPE svg PUBLIC "-//W3C//DTD SVG 20010904//EN"
 "http://www.w3.org/TR/2001/REC-SVG-20010904/DTD/svg10.dtd">
<svg version="1.0" xmlns="http://www.w3.org/2000/svg"
 width="225.000000pt" height="225.000000pt" viewBox="0 0 225.000000 225.000000"
 preserveAspectRatio="xMidYMid meet">
<metadata>
Created by potrace 1.14, written by Peter Selinger 2001-2017
</metadata>
<g transform="translate(0.000000,225.000000) scale(0.100000,-0.100000)"
fill="#000000" stroke="none">
<path d="M257 2239 c-96 -23 -182 -94 -226 -188 l-26 -56 0 -870 0 -870 26
-56 c34 -72 96 -134 168 -168 l56 -26 870 0 870 0 56 26 c72 34 134 96 168
168 l26 56 0 870 0 870 -26 56 c-34 72 -96 134 -168 168 l-56 26 -850 2 c-476
1 -867 -3 -888 -8z m133 -1019 c0 -214 7 -246 62 -280 37 -23 101 -26 138 -7
13 7 35 28 47 46 22 33 23 42 23 232 l0 199 45 0 45 0 0 -280 0 -280 -45 0
c-38 0 -45 3 -45 20 0 19 -2 18 -47 -6 -41 -22 -57 -25 -112 -21 -82 6 -136
42 -171 112 -23 47 -25 62 -28 237 -3 104 -2 195 2 203 3 10 19 15 46 15 l40
0 0 -190z m500 89 l0 -100 28 19 c102 73 249 36 306 -79 44 -89 30 -176 -40
-246 -67 -67 -155 -81 -240 -38 -27 14 -50 25 -51 25 -2 0 -3 -9 -3 -20 0 -17
-7 -20 -40 -20 l-40 0 0 280 0 280 40 0 40 0 0 -101z m704 -72 c49 -27 92 -95
101 -159 l6 -48 -165 0 c-157 0 -166 -1 -166 -19 0 -30 48 -79 89 -92 45 -13
109 1 136 31 22 24 24 24 53 0 32 -26 17 -51 -50 -84 -89 -45 -185 -30 -254
39 -172 172 38 450 250 332z m226 3 c0 -20 0 -20 33 0 17 11 47 20 65 20 32 0
33 -1 30 -37 -3 -32 -7 -38 -28 -41 -90 -10 -100 -31 -100 -207 l0 -125 -40 0
-40 0 0 205 0 205 40 0 c33 0 40 -3 40 -20z"/>
<path d="M953 1169 c-82 -53 -81 -181 3 -236 35 -22 114 -22 148 1 86 56 87
185 3 236 -42 26 -112 26 -154 -1z"/>
<path d="M1404 1156 c-60 -60 -51 -66 86 -66 66 0 120 2 120 5 0 16 -33 66
-52 79 -13 9 -43 16 -71 16 -42 0 -54 -5 -83 -34z"/>
</g>
</svg>
